<svg width="14" height="14" viewBox="0 0 14 14" fill="none" xmlns="http://www.w3.org/2000/svg">
<path d="M7.00012 1.31213C6.01224 1.31243 5.04145 1.56995 4.18332 2.05936C3.32519 2.54876 2.60928 3.25319 2.10606 4.1033C1.60284 4.9534 1.32966 5.9199 1.31339 6.90764C1.29713 7.89539 1.53835 8.87036 2.0133 9.73657L1.54547 11.3721C1.50249 11.5221 1.50044 11.681 1.53954 11.8321C1.57865 11.9832 1.65748 12.1211 1.76785 12.2315C1.87823 12.3419 2.01613 12.4207 2.16725 12.4598C2.31837 12.4989 2.4772 12.4968 2.62726 12.4539L4.26318 11.9873C5.0235 12.4045 5.86915 12.6423 6.73546 12.6825C7.60177 12.7227 8.46582 12.5644 9.26153 12.2195C10.0572 11.8746 10.7636 11.3523 11.3265 10.6926C11.8894 10.0328 12.294 9.25314 12.5094 8.41306C12.7248 7.57299 12.7452 6.69478 12.5692 5.8456C12.3931 4.99641 12.0252 4.19872 11.4936 3.51352C10.962 2.82832 10.2807 2.27375 9.50191 1.8922C8.7231 1.51066 7.86737 1.31225 7.00012 1.31213ZM8.75012 8.31213H5.25012C5.13409 8.31213 5.02281 8.26604 4.94076 8.18399C4.85871 8.10195 4.81262 7.99067 4.81262 7.87463C4.81262 7.7586 4.85871 7.64732 4.94076 7.56527C5.02281 7.48323 5.13409 7.43713 5.25012 7.43713H8.75012C8.86615 7.43713 8.97743 7.48323 9.05948 7.56527C9.14152 7.64732 9.18762 7.7586 9.18762 7.87463C9.18762 7.99067 9.14152 8.10195 9.05948 8.18399C8.97743 8.26604 8.86615 8.31213 8.75012 8.31213ZM8.75012 6.56213H5.25012C5.13409 6.56213 5.02281 6.51604 4.94076 6.43399C4.85871 6.35195 4.81262 6.24067 4.81262 6.12463C4.81262 6.0086 4.85871 5.89732 4.94076 5.81527C5.02281 5.73323 5.13409 5.68713 5.25012 5.68713H8.75012C8.86615 5.68713 8.97743 5.73323 9.05948 5.81527C9.14152 5.89732 9.18762 6.0086 9.18762 6.12463C9.18762 6.24067 9.14152 6.35195 9.05948 6.43399C8.97743 6.51604 8.86615 6.56213 8.75012 6.56213Z" fill="black"/>
</svg>
